<?xml version="1.0" encoding="utf-8"?>
<!-- Generator: Adobe Illustrator 25.3.1, SVG Export Plug-In . SVG Version: 6.00 Build 0)  -->
<svg version="1.1" xmlns="http://www.w3.org/2000/svg" xmlns:xlink="http://www.w3.org/1999/xlink" x="0px" y="0px"
	 viewBox="0 0 522 202" style="enable-background:new 0 0 522 202;" xml:space="preserve">
<style type="text/css">
	.st0{fill:#CDCDCD;}
</style>
<g id="HOME_xA0_Imagen_1_">
</g>
<g id="Quantum">
	<g>
		<g>
			<path class="st0" d="M155.5,122.5c8.1,3.5,15.5,3.6,22.3,0.4l-1.9,4c-1.8,1.2-4.5,1.8-8.2,1.8c-3.2,0-6.1-0.5-8.8-1.4
				c-2.7-0.9-5-2.1-6.8-3.5c-1.8-1.4-3.2-2.7-4.2-3.8c-1-1.1-1.8-2.1-2.6-3.2c-3.5-0.2-6.6-0.9-9.5-2.1c-5.1-2.2-9.2-5.7-12.2-10.5
				c-3.1-4.8-4.6-10.2-4.6-16.3c0-8.2,2.7-15.2,8-20.7c5.3-5.6,11.9-8.4,19.9-8.4c7.9,0,14.6,2.8,19.9,8.4c5.3,5.6,8,12.5,8,20.7
				c0,6.1-1.5,11.5-4.6,16.3c-3.1,4.8-7.1,8.3-12.3,10.5c-3.3,1.4-6.9,2.1-10.8,2.2C149.8,119.3,152.6,121.2,155.5,122.5z
				 M130.2,107.6c4.1,5.2,9.7,7.7,16.6,7.7c6.9,0,12.5-2.6,16.6-7.7c4.2-5.1,6.3-11.7,6.3-19.8c0-8-2.1-14.6-6.3-19.8
				c-4.2-5.2-9.7-7.8-16.6-7.8c-6.9,0-12.4,2.6-16.6,7.8c-4.1,5.2-6.2,11.8-6.2,19.8C124,95.9,126,102.4,130.2,107.6z"/>
			<path class="st0" d="M206.1,110.1c-3.6,4.5-7.8,6.8-12.7,6.8c-3.3,0-5.8-0.9-7.5-2.8c-1.8-1.9-2.6-4.5-2.6-7.9V84.5
				c0-2.1-1.1-3.8-3.2-4.9v-0.2h7V105c0,6,2.6,8.9,7.9,8.9c4.1,0,7.7-1.6,10.8-4.8V84.5c0-2.2-1.1-3.9-3.4-4.9v-0.2h7.2v27.8
				c0,2.3,0.2,3.9,0.7,4.7c0.5,0.8,1.4,1.5,2.7,2.1v0.2l-6.9,2.4V110.1z"/>
			<path class="st0" d="M244,116.6c-1.6,0-2.8-0.5-3.6-1.4c-0.8-0.9-1.2-2.2-1.3-3.8c-3.4,3.6-7.4,5.4-12.1,5.4
				c-2.7,0-4.9-0.7-6.5-2.1c-1.6-1.4-2.4-3.3-2.4-5.7c0-2.1,0.7-4.1,2-5.8c1.3-1.7,3.1-3.1,5.3-4.1c2.2-1,4.4-1.9,6.7-2.5
				c2.3-0.6,4.6-1.1,7-1.3v-7c0-5.2-2.9-7.8-8.6-7.8c-3.9,0-7.4,1.1-10.7,3.4l-0.4-0.5c3.4-3.4,7.8-5.1,13.3-5.1
				c3.9,0,6.5,0.8,8,2.5c1.5,1.7,2.2,3.9,2.2,6.8v23c0,2.2,1,3.3,3,3.3c1.2,0,2.4-0.6,3.7-1.8l0.2,0.2
				C248.6,115.2,246.7,116.6,244,116.6z M228.8,114.1c4.2,0,7.6-1.3,10.2-4V96.7c-3,0.4-5.7,1-8.2,1.8s-4.5,2.1-6.3,3.8
				c-1.8,1.7-2.6,3.6-2.6,5.8c0,1.9,0.6,3.4,1.7,4.5C224.8,113.6,226.6,114.1,228.8,114.1z"/>
			<path class="st0" d="M260.3,115.7h-7.2v-0.2c1.1-2.1,1.7-5.1,1.7-8.9V87.8c0-2.3-1.1-4.2-3.4-5.7v-0.2l6.9-4v6.9l0.3,0.1
				c3.8-4.4,8.3-6.6,13.7-6.6c3.5,0,6.2,1,8,2.9c1.8,2,2.7,4.7,2.7,8.2v17.1c0,2.4,0.1,4.2,0.3,5.4c0.2,1.2,0.6,2.4,1.4,3.6v0.2
				h-7.2v-0.2c1.1-2.1,1.7-5.1,1.7-8.9V90.3c0-6-2.8-9-8.5-9c-5,0-9,1.7-12.1,5v20.2c0,2.3,0.1,4.1,0.3,5.3c0.2,1.2,0.6,2.4,1.4,3.7
				V115.7z"/>
			<path class="st0" d="M302.2,116.9c-2.1,0-3.9-0.6-5.4-1.9c-1.5-1.3-2.2-3.4-2.2-6.4V80.9h-4.1v-0.2l7.8-6.8h0.2v5.6h11.3v1.4
				h-11.3v27.8c0,3.9,1.9,5.9,5.6,5.9c2.3,0,4.4-0.5,6.4-1.6l0.2,0.3C308,115.7,305.3,116.9,302.2,116.9z"/>
			<path class="st0" d="M340,110.1c-3.6,4.5-7.8,6.8-12.7,6.8c-3.3,0-5.8-0.9-7.5-2.8c-1.8-1.9-2.6-4.5-2.6-7.9V84.5
				c0-2.1-1.1-3.8-3.2-4.9v-0.2h7V105c0,6,2.6,8.9,7.9,8.9c4.1,0,7.7-1.6,10.8-4.8V84.5c0-2.2-1.1-3.9-3.4-4.9v-0.2h7.2v27.8
				c0,2.3,0.2,3.9,0.7,4.7c0.5,0.8,1.4,1.5,2.7,2.1v0.2l-6.9,2.4V110.1z"/>
			<path class="st0" d="M361.1,115.7h-7.2v-0.2c1.2-2,1.8-5,1.8-8.8V88c0-2.4-1.1-4.4-3.4-6v-0.2l6.9-4v7.1l0.3,0.1
				c3.1-4.4,7.1-6.6,12.3-6.6c4.7,0,7.5,2.2,8.5,6.7l0.2,0.1c3.2-4.5,7.3-6.8,12.4-6.8c3.1,0,5.3,0.9,6.6,2.6c1.3,1.8,2,4.3,2,7.7
				v18c0,2.3,0.1,4,0.3,5.3c0.2,1.2,0.7,2.4,1.4,3.6v0.2h-7.2v-0.2c1.1-1.9,1.7-4.9,1.7-8.8V89.5c0-2.6-0.5-4.6-1.4-6
				c-1-1.4-2.7-2.1-5.3-2.1c-3.8,0-7.2,1.7-10.4,5.2v20.2c0,2.3,0.1,4,0.3,5.3c0.2,1.2,0.7,2.4,1.4,3.6v0.2h-7.2v-0.2
				c1.1-1.9,1.7-4.9,1.7-8.8V89.5c0-2.6-0.5-4.6-1.4-6c-1-1.4-2.8-2.1-5.4-2.1c-3.8,0-7.2,1.7-10.3,5v20.4c0,4.1,0.6,7,1.7,8.8
				V115.7z"/>
		</g>
		<g>
			<path class="st0" d="M194.1,143.1h-2.4v0c0.2-0.4,0.3-0.7,0.4-1c0.1-0.3,0.1-0.7,0.1-1.2v-4.6c0-0.5,0-0.9-0.1-1.2
				c-0.1-0.3-0.2-0.6-0.4-1v0h6.1l0.5,2.2l-0.1,0c-0.1-0.1-0.3-0.4-0.7-0.8c-0.3-0.4-0.6-0.7-0.8-0.9c-0.2-0.2-0.4-0.3-0.6-0.3
				l-2.5-0.1v4.1h1.3c0.1,0,0.3-0.1,0.4-0.2s0.3-0.2,0.4-0.3c0.1-0.1,0.2-0.3,0.4-0.5s0.3-0.3,0.3-0.4h0.1v2.8h-0.1
				c0,0-0.1-0.2-0.3-0.4c-0.2-0.2-0.3-0.3-0.4-0.4c-0.1-0.1-0.2-0.2-0.4-0.3s-0.3-0.1-0.5-0.1h-1.3v2.3c0,0.5,0,0.9,0.1,1.2
				C193.8,142.3,193.9,142.7,194.1,143.1L194.1,143.1z"/>
			<path class="st0" d="M214,143c0.2-0.4,0.3-0.7,0.4-1c0.1-0.3,0.1-0.7,0.1-1.2v-4.6c0-0.5,0-0.9-0.1-1.2c-0.1-0.3-0.2-0.6-0.4-1v0
				h2.4v0c-0.2,0.4-0.3,0.7-0.4,1c-0.1,0.3-0.1,0.7-0.1,1.2v4.6c0,0.5,0,0.9,0.1,1.2c0.1,0.3,0.2,0.6,0.4,1v0L214,143L214,143z"/>
			<path class="st0" d="M237.6,143.1h-2.4v0c0.2-0.4,0.3-0.7,0.4-1c0.1-0.3,0.1-0.7,0.1-1.2v-6.7l-1.4,0c-0.2,0-0.4,0.1-0.6,0.4
				s-0.5,0.5-0.7,0.8c-0.2,0.3-0.4,0.6-0.7,1c-0.1,0.1-0.1,0.2-0.2,0.2l-0.1,0l0.5-2.6h7.6l0.5,2.6l-0.1,0c-0.1-0.1-0.2-0.3-0.4-0.6
				s-0.3-0.5-0.5-0.6c-0.1-0.2-0.3-0.3-0.4-0.5s-0.3-0.3-0.4-0.4c-0.1-0.1-0.3-0.1-0.4-0.2l-1.4,0v6.7c0,0.5,0,0.9,0.1,1.2
				S237.4,142.7,237.6,143.1L237.6,143.1z"/>
			<path class="st0" d="M257.1,135.2l0,5.3c0,0.6,0.1,1,0.2,1.3c0.1,0.3,0.3,0.7,0.7,1.1v0h-1.9v0c0.3-0.4,0.5-0.8,0.6-1.1
				c0.1-0.3,0.1-0.8,0.1-1.3v-4.9c0-0.4-0.1-0.7-0.2-1c-0.1-0.2-0.4-0.5-0.7-0.8v0h2l5.2,7.1l0-4.6c0-0.5-0.1-1-0.2-1.3
				c-0.1-0.3-0.3-0.7-0.6-1.1v0h1.8v0c-0.3,0.4-0.5,0.8-0.6,1.1c-0.1,0.3-0.1,0.8-0.1,1.3v6.6l-0.4,0L257.1,135.2z"/>
			<path class="st0" d="M286.4,143.1H280v0c0.3-0.7,0.5-1.4,0.5-2.1V136c0-0.4,0-0.7-0.1-1c-0.1-0.3-0.2-0.6-0.4-1.1v0h5.8l0.5,2.2
				l-0.1,0c-0.1-0.1-0.3-0.3-0.7-0.7s-0.6-0.7-0.9-0.9c-0.2-0.2-0.4-0.3-0.6-0.3l-2.1-0.1v4.2h1.1c0.1,0,0.3,0,0.4-0.1
				c0.2-0.1,0.3-0.2,0.4-0.3c0.1-0.1,0.2-0.3,0.4-0.5c0.2-0.2,0.3-0.3,0.3-0.4h0.1v2.8h-0.1c0,0-0.1-0.2-0.3-0.4
				c-0.2-0.2-0.3-0.3-0.4-0.4c-0.1-0.1-0.2-0.2-0.4-0.3s-0.3-0.1-0.5-0.1h-1.1v4.3l2.2-0.1c0.3,0,0.7-0.1,1-0.4s0.7-0.5,0.9-0.8
				s0.5-0.6,0.8-1l0.1,0L286.4,143.1z"/>
			<path class="st0" d="M308,136.4l-0.1,0c-0.4-0.9-0.8-1.5-1.2-1.9c-0.4-0.4-0.9-0.5-1.3-0.5c-0.4,0-0.8,0.1-1,0.4
				c-0.2,0.3-0.4,0.6-0.4,1c0,0.2,0,0.4,0.1,0.6c0.1,0.2,0.2,0.4,0.3,0.5c0.1,0.1,0.3,0.3,0.5,0.4s0.4,0.3,0.6,0.3
				c0.1,0.1,0.4,0.2,0.7,0.3c0.3,0.2,0.6,0.3,0.7,0.4c0.2,0.1,0.4,0.2,0.7,0.4c0.3,0.2,0.4,0.4,0.6,0.6c0.1,0.2,0.3,0.4,0.4,0.7
				c0.1,0.3,0.2,0.6,0.2,0.9c0,0.9-0.3,1.5-0.9,2c-0.6,0.4-1.4,0.7-2.3,0.7c-0.8,0-1.7-0.2-2.6-0.5l-0.2-2.3l0.1,0
				c0.5,0.9,1,1.5,1.5,2c0.5,0.4,1,0.6,1.6,0.6c0.5,0,1-0.2,1.2-0.5s0.4-0.7,0.4-1.2c0-0.5-0.2-1-0.5-1.3s-0.8-0.7-1.4-1
				c-0.3-0.1-0.4-0.2-0.6-0.3c-0.1-0.1-0.3-0.2-0.5-0.3c-0.2-0.1-0.4-0.2-0.5-0.3c-0.1-0.1-0.2-0.2-0.4-0.4
				c-0.2-0.2-0.3-0.3-0.3-0.4c-0.1-0.1-0.1-0.3-0.2-0.5c-0.1-0.2-0.1-0.4-0.1-0.6c0-0.8,0.3-1.4,0.8-1.8s1.2-0.6,2.1-0.6
				c0.7,0,1.4,0.1,2,0.4L308,136.4z"/>
			<path class="st0" d="M329.7,136.4l-0.1,0c-0.4-0.9-0.8-1.5-1.2-1.9c-0.4-0.4-0.9-0.5-1.3-0.5c-0.4,0-0.8,0.1-1,0.4
				c-0.2,0.3-0.4,0.6-0.4,1c0,0.2,0,0.4,0.1,0.6c0.1,0.2,0.2,0.4,0.3,0.5c0.1,0.1,0.3,0.3,0.5,0.4s0.4,0.3,0.6,0.3
				c0.1,0.1,0.4,0.2,0.7,0.3c0.3,0.2,0.6,0.3,0.7,0.4c0.2,0.1,0.4,0.2,0.7,0.4c0.3,0.2,0.4,0.4,0.6,0.6c0.1,0.2,0.3,0.4,0.4,0.7
				c0.1,0.3,0.2,0.6,0.2,0.9c0,0.9-0.3,1.5-0.9,2c-0.6,0.4-1.4,0.7-2.3,0.7c-0.8,0-1.7-0.2-2.6-0.5l-0.2-2.3l0.1,0
				c0.5,0.9,1,1.5,1.5,2c0.5,0.4,1,0.6,1.6,0.6c0.5,0,1-0.2,1.2-0.5s0.4-0.7,0.4-1.2c0-0.5-0.2-1-0.5-1.3s-0.8-0.7-1.4-1
				c-0.3-0.1-0.4-0.2-0.6-0.3c-0.1-0.1-0.3-0.2-0.5-0.3c-0.2-0.1-0.4-0.2-0.5-0.3c-0.1-0.1-0.2-0.2-0.4-0.4
				c-0.2-0.2-0.3-0.3-0.3-0.4c-0.1-0.1-0.1-0.3-0.2-0.5c-0.1-0.2-0.1-0.4-0.1-0.6c0-0.8,0.3-1.4,0.8-1.8s1.2-0.6,2.1-0.6
				c0.7,0,1.4,0.1,2,0.4L329.7,136.4z"/>
		</g>
	</g>
</g>
</svg>
